<svg xmlns="http://www.w3.org/2000/svg" viewBox="28 93 162 142">
  <path fill="#0f3460" d="m 42.898514,220.23772 c -1.8699,-0.22382 -3.0427,-1.58311 -3.0427,-3.52653 0,-0.99457 1.10914,-7.24453 1.86557,-10.51237 0.33782,-1.45943 2.86632,-14.22515 3.9686,-20.0364 0.87086,-4.59119 1.20604,-5.61266 2.20042,-6.70587 1.31939,-1.45052 1.4813,-1.472 16.17478,-2.14665 21.27394,-0.97678 31.28305,-1.2982 43.391656,-1.39341 8.81585,-0.0693 9.3104,-0.0474 10.30167,0.45635 2.2143,1.1253 2.39849,2.02263 2.79695,13.62604 0.15241,4.43838 0.39564,11.07534 0.54052,14.74879 0.37499,9.50814 0.3844,12.52789 0.0416,13.35238 -0.1639,0.39424 -0.80012,1.04908 -1.41382,1.45521 l -1.11582,0.73841 -37.457846,0.0195 c -20.60182,0.0107 -37.81504,-0.0232 -38.25161,-0.0755 z m 86.154356,-0.0831 c -1.22518,-0.28071 -2.19274,-1.03984 -2.74887,-2.1567 -0.38075,-0.76465 -0.51484,-2.11062 -0.72318,-7.25896 -0.14067,-3.47615 -0.50782,-11.89753 -0.81588,-18.7142 -0.52985,-11.72435 -0.53583,-12.45752 -0.11063,-13.57088 0.49025,-1.28371 1.21007,-1.88939 2.6246,-2.20842 0.95891,-0.21627 8.34582,-0.0172 24.36334,0.65639 17.06435,0.71766 21.15104,0.9412 22.16324,1.21233 1.22306,0.32759 2.74687,1.62493 3.20971,2.73267 0.18968,0.45396 0.61052,2.31193 0.93521,4.12882 0.71225,3.98566 2.06255,10.99745 3.46402,17.98782 0.56891,2.83766 1.35673,6.76672 1.75071,8.73125 0.98053,4.88931 1.02976,5.76268 0.3832,6.79864 -0.29023,0.46504 -0.85556,1.06035 -1.25628,1.32292 -0.68878,0.45131 -2.13865,0.47919 -26.53711,0.51022 -14.19469,0.0181 -26.21063,-0.0593 -26.70208,-0.1719 z M 50.541834,173.61717 c -0.95227,-0.41405 -1.69019,-1.59452 -1.69019,-2.70386 0,-1.59015 0.56752,-4.77229 3.69787,-20.73422 0.57078,-2.91042 1.22756,-6.36323 1.45953,-7.67292 0.57024,-3.21957 0.84304,-3.98585 1.81179,-5.08919 1.3682,-1.55829 1.02398,-1.48186 15.32511,-3.4027 2.65026,-0.35597 3.59029,-0.38949 4.37008,-0.15587 1.23188,0.36908 1.91093,1.43582 1.90974,3.00004 -0.001,1.62602 -1.64433,19.13709 -2.64883,28.22958 -0.55298,5.00543 -0.83326,5.82012 -2.3551,6.84569 -1.10461,0.7444 -1.07283,0.74039 -9.94415,1.25384 -4.07458,0.23583 -8.3013,0.48363 -9.39271,0.55067 -1.0914,0.067 -2.23582,0.0126 -2.54314,-0.12106 z m 112.874376,-0.31979 c -8.85972,-0.52314 -19.87686,-0.92375 -36.5125,-1.3277 -9.79792,-0.23792 -16.203,-0.23092 -29.062636,0.0317 -16.18601,0.3306 -16.5081,0.3273 -17.19791,-0.17646 -0.38664,-0.28235 -0.93582,-0.98193 -1.22041,-1.55463 -0.61043,-1.22843 -0.61133,-3.01986 -0.005,-9.3746 1.71332,-17.94708 2.2413,-23.27034 2.42395,-24.43891 0.21452,-1.37247 1.59104,-3.13452 2.74051,-3.50807 2.53879,-0.82506 25.540466,-1.54719 37.088146,-1.16439 7.80413,0.25871 9.49357,0.34118 16.74241,0.81721 5.70358,0.37455 9.37286,0.72994 15.08125,1.4607 12.51493,1.60211 13.02664,1.71231 14.35741,3.09201 1.10487,1.1455 1.31143,1.76178 2.19286,6.54251 1.7725,9.61376 2.45345,13.20187 3.7157,19.57916 1.43198,7.23484 1.51009,8.63633 0.53563,9.61079 -0.82724,0.82723 -2.65554,0.89624 -10.87973,0.41063 z M 57.934454,131.39409 c -1.56285,-0.65979 -1.70356,-1.56967 -0.89433,-5.78285 0.28355,-1.47633 1.11486,-5.87094 1.84734,-9.76581 0.73248,-3.89487 1.51583,-7.43749 1.74078,-7.87248 0.78299,-1.51415 1.94966,-1.9679 8.06715,-3.13753 9.16059,-1.75146 14.47854,-2.49485 23.88299,-3.33856 5.97081,-0.53566 7.535966,-0.51719 8.549546,0.10088 1.52736,0.93139 1.54551,1.11897 1.20151,12.41744 -0.29663,9.74265 -0.34014,10.29199 -0.90502,11.42537 -1.02111,2.0488 -1.913806,2.32085 -8.651946,2.63669 -9.98904,0.46823 -22.31026,1.78559 -33.3375,3.56439 -0.3638,0.0587 -1.03903,-0.0527 -1.50052,-0.24754 z m 103.894256,-0.15177 c -4.10428,-0.67792 -17.04565,-2.26733 -21.29896,-2.61585 -5.77954,-0.47359 -13.33586,-0.79802 -22.48958,-0.9656 -7.88074,-0.14428 -8.83838,-0.2098 -9.83112,-0.67261 -1.57164,-0.7327 -2.06992,-1.87982 -1.99398,-4.59042 0.5884,-21.00139 0.47695,-19.9437 2.21804,-21.05025 0.85841,-0.54556 1.05461,-0.55373 9.87165,-0.41086 10.25787,0.16623 16.45147,0.62576 25.79687,1.91402 4.49404,0.6195 16.68764,3.01733 17.52977,3.44718 1.44208,0.73606 1.9301,1.98176 2.93867,7.50095 0.51854,2.83766 1.19325,6.52859 1.49935,8.20208 0.3061,1.67349 0.73005,3.99521 0.94211,5.15938 0.41892,2.29984 0.32522,3.29501 -0.36917,3.9207 -0.73334,0.66078 -1.61143,0.6902 -4.81365,0.16128 z m -99.668926,-5.6006 c -0.59777,-0.48578 -0.64734,-0.69202 -0.59356,-2.469756 0.0706,-2.33376 1.44503,-9.606456 2.06067,-10.903814 0.24188,-0.509731 0.72261,-1.112097 1.06828,-1.338591 0.67703,-0.443604 7.05687,-2.040879 10.67151,-2.671747 3.15263,-0.550232 4.60034,-0.510373 5.19157,0.142935 0.45218,0.499652 0.46132,0.821117 0.15987,5.622395 -0.37957,6.045322 -0.71819,7.492272 -2.02109,8.636232 -0.51482,0.45201 -1.14246,0.82184 -1.39477,0.82184 -0.25231,0 -3.19496,0.55157 -6.53923,1.225716 -7.89288,1.59107 -7.80713,1.58175 -8.60325,0.93479 z m 95.259206,0.0588 c -0.94588,-0.21145 -3.02948,-0.62279 -4.63021,-0.91409 -1.60072,-0.2913 -3.74385,-0.698096 -4.7625,-0.903996 -1.83688,-0.37129 -9.7315,-1.4273 -14.81666,-1.98192 -2.91715,-0.31817 -4.59176,-0.82091 -5.28463,-1.58652 -0.51381,-0.56776 -0.85933,-3.913372 -0.98879,-9.574363 -0.0744,-3.254896 -0.058,-3.369 0.58488,-4.066172 l 0.66146,-0.7173 3.12052,0.171672 c 3.19966,0.176024 5.37491,0.45062 12.75447,1.610078 8.20044,1.288432 13.40193,2.520787 14.37879,3.406673 0.97092,0.880502 1.24553,1.633478 1.99029,5.45746 1.32896,6.823512 1.35943,8.622448 0.15695,9.265998 -0.61423,0.32873 -1.0472,0.30581 -3.16457,-0.16752 z"/>
</svg>
